<?xml version="1.0" encoding="UTF-8" standalone="no"?>
<svg width="122px" height="122px" viewBox="0 0 122 122" version="1.1" xmlns="http://www.w3.org/2000/svg" xmlns:xlink="http://www.w3.org/1999/xlink">
    <!-- Generator: Sketch 41.2 (35397) - http://www.bohemiancoding.com/sketch -->
    <title>collab-circle-icon</title>
    <desc>Created with Sketch.</desc>
    <defs></defs>
    <g id="Page-1" stroke="none" stroke-width="1" fill="none" fill-rule="evenodd">
        <g id="collab-circle-icon">
            <g id="Page-1">
                <g id="Artboard">
                    <g id="Collaborate-with-others">
                        <g id="Circle-and-icon">
                            <circle id="Icon-circle" fill="#D9FBFD" cx="61" cy="61" r="61"></circle>
                            <g id="Collab-icon" transform="translate(25.000000, 25.000000)" fill="#5B4DC8">
                                <path d="M36.5,19.3 C41.7,19.3 45.9,15.1 45.9,9.9 C45.9,4.7 41.7,0.5 36.5,0.5 C31.3,0.5 27.1,4.7 27.1,9.9 C27.1,15.1 31.3,19.3 36.5,19.3 L36.5,19.3 Z M36.5,4.5 C39.5,4.5 41.9,6.9 41.9,9.9 C41.9,12.9 39.5,15.3 36.5,15.3 C33.5,15.3 31.1,12.9 31.1,9.9 C31.1,6.9 33.5,4.5 36.5,4.5 L36.5,4.5 Z" id="Shape"></path>
                                <path d="M63.7,46.8 C62,46.8 60.4,47.3 59.1,48.1 L51.8,40.8 C52.9,40.8 53.7,39.9 53.7,38.8 L53.7,31.3 C53.7,28.1 51.7,25.2 48.8,24.1 C40.9,21.2 32.1,21.2 24.2,24.1 C21.3,25.2 19.3,28.1 19.3,31.3 L19.3,38.8 C19.3,39.9 20.2,40.7 21.2,40.8 L13.9,48.1 C12.6,47.3 11,46.8 9.3,46.8 C4.5,46.8 0.5,50.7 0.5,55.6 C0.5,60.4 4.4,64.4 9.3,64.4 C14.1,64.4 18.1,60.5 18.1,55.6 C18.1,53.9 17.6,52.3 16.8,51 L26.9,40.9 L34.6,40.9 L34.6,55.2 C30.7,56.1 27.8,59.6 27.8,63.7 C27.8,68.5 31.7,72.5 36.6,72.5 C41.4,72.5 45.4,68.6 45.4,63.7 C45.4,59.6 42.5,56.1 38.6,55.2 L38.6,40.9 L46.3,40.9 L56.3,51 C55.5,52.3 55,53.9 55,55.6 C55,60.4 58.9,64.4 63.8,64.4 C68.6,64.4 72.6,60.5 72.6,55.6 C72.5,50.7 68.6,46.8 63.7,46.8 L63.7,46.8 Z M9.3,60.4 C6.7,60.4 4.5,58.3 4.5,55.6 C4.5,53 6.6,50.8 9.3,50.8 C11.9,50.8 14.1,52.9 14.1,55.6 C14,58.2 11.9,60.4 9.3,60.4 L9.3,60.4 Z M41.3,63.7 C41.3,66.3 39.2,68.5 36.5,68.5 C33.9,68.5 31.7,66.4 31.7,63.7 C31.7,61.1 33.8,58.9 36.5,58.9 C39.1,59 41.3,61.1 41.3,63.7 L41.3,63.7 Z M49.7,36.9 L23.3,36.9 L23.3,31.4 C23.3,29.9 24.2,28.5 25.6,28 C32.7,25.4 40.4,25.4 47.5,28 C48.9,28.5 49.8,29.9 49.8,31.4 L49.8,36.9 L49.7,36.9 Z M63.7,60.4 C61.1,60.4 58.9,58.3 58.9,55.6 C58.9,53 61,50.8 63.7,50.8 C66.3,50.8 68.5,52.9 68.5,55.6 C68.5,58.2 66.4,60.4 63.7,60.4 L63.7,60.4 Z" id="Shape"></path>
                            </g>
                        </g>
                    </g>
                </g>
            </g>
        </g>
    </g>
</svg>