<?xml version="1.0" encoding="UTF-8" standalone="no"?>
<svg width="122px" height="122px" viewBox="0 0 122 122" version="1.1" xmlns="http://www.w3.org/2000/svg" xmlns:xlink="http://www.w3.org/1999/xlink">
    <!-- Generator: Sketch 41.2 (35397) - http://www.bohemiancoding.com/sketch -->
    <title>ladder-circle-icon</title>
    <desc>Created with Sketch.</desc>
    <defs></defs>
    <g id="Page-1" stroke="none" stroke-width="1" fill="none" fill-rule="evenodd">
        <g id="ladder-circle-icon">
            <g id="Page-1">
                <g id="Artboard">
                    <g id="4-difficulty-levels">
                        <g id="Circle-and-icon">
                            <circle id="Icon-circle" fill="#D9FBFD" cx="61" cy="61" r="61"></circle>
                            <path d="M73.9993922,26.9115578 C73.9493922,25.2545578 72.5643922,23.9525578 70.9103922,24.0025578 C69.2543922,24.0515578 67.9523922,25.4345578 68.0013922,27.0905578 L68.2373922,35.0005578 L53.7623922,35.0005578 L53.9983922,27.0895578 C54.0483922,25.4335578 52.7453922,24.0505578 51.0893922,24.0015578 C49.4523922,23.9485578 48.0513922,25.2545578 48.0013922,26.9105578 L46.0013922,93.9105578 C45.9513922,95.5665578 47.2543922,97.0005578 48.9103922,97.0005578 L49.0013922,97.0005578 C50.6173922,97.0005578 51.9503922,95.7155578 51.9983922,94.0905578 L52.2403922,86.0005578 L69.7603922,86.0005578 L70.0013922,94.0905578 C70.0503922,95.7155578 71.3833922,97.0005578 72.9983922,97.0005578 L73.0903922,97.0005578 C74.7463922,97.0005578 76.0483922,95.5665578 75.9993922,93.9105578 L73.9993922,26.9115578 L73.9993922,26.9115578 Z M53.1363922,56.0005578 L68.8653922,56.0005578 L69.1343922,65.0005578 L52.8673922,65.0005578 L53.1363922,56.0005578 L53.1363922,56.0005578 Z M68.4163922,41.0005578 L68.6853922,50.0005578 L53.3153922,50.0005578 L53.5843922,41.0005578 L68.4163922,41.0005578 L68.4163922,41.0005578 Z M52.4193922,80.0005578 L52.6883922,71.0005578 L69.3123922,71.0005578 L69.5813922,80.0005578 L52.4193922,80.0005578 L52.4193922,80.0005578 Z" id="Ladder-icon" fill="#5B4DC8"></path>
                        </g>
                    </g>
                </g>
            </g>
        </g>
    </g>
</svg>