<?xml version="1.0" encoding="UTF-8" standalone="no"?>
<svg width="122px" height="122px" viewBox="0 0 122 122" version="1.1" xmlns="http://www.w3.org/2000/svg" xmlns:xlink="http://www.w3.org/1999/xlink">
    <!-- Generator: Sketch 41.2 (35397) - http://www.bohemiancoding.com/sketch -->
    <title>pencil-circle-icon</title>
    <desc>Created with Sketch.</desc>
    <defs></defs>
    <g id="Page-1" stroke="none" stroke-width="1" fill="none" fill-rule="evenodd">
        <g id="pencil-circle-icon">
            <g id="Page-1">
                <g id="Artboard">
                    <g id="1000s-of-questions">
                        <g id="Circle-and-icon">
                            <circle id="Icon-circle" fill="#D9FBFD" cx="61" cy="61" r="61"></circle>
                            <path d="M90.3401931,45.7564689 L90.3401931,45.7564689 C89.9029195,44.6749744 89.2465761,43.6558238 88.3746266,42.7838743 L79.2187234,33.6314346 C78.3476397,32.7560215 77.3310868,32.0988123 76.2461288,31.6624046 C75.1637683,31.2225333 74.0173322,31 72.8631031,31 C71.7062762,31 70.5459859,31.2225333 69.4541007,31.666734 C68.3596179,32.1109347 67.3309425,32.7819982 66.4512,33.6556795 L66.4512,33.6686678 C66.4269551,33.6885833 66.2347279,33.8782128 65.9325329,34.1786761 C65.6130201,34.4999206 65.1679535,34.9475849 64.6501523,35.4619226 L36.8179037,63.2985006 C36.5616007,63.5487423 36.3988137,63.8717186 36.3243473,64.2068174 C36.3078955,64.2682955 36.2836506,64.3427619 36.2628693,64.4302166 L36.2628693,64.4345461 C35.8429134,66.3957831 31.0363673,88.8508652 31.0363673,88.8508652 C31.0121224,88.9798825 31,89.1071681 31,89.2301243 C31,89.7028993 31.1835683,90.1678813 31.5307895,90.5125049 C31.8710837,90.8571284 32.3360657,91.0415626 32.8131702,91.0415626 C32.9456511,91.0415626 33.0677413,91.0303061 33.1906975,91.0008659 C33.1906975,91.0008659 52.7069545,86.8290159 57.7698036,85.7483873 C58.2217973,85.6531396 58.5828727,85.3933731 58.8426392,85.0478836 L87.3009251,56.587866 L87.3052545,56.5852684 C87.5035429,56.3878458 87.6767206,56.2103387 87.8239216,56.0674671 C88.1494956,55.742759 88.3434546,55.5496659 88.3434546,55.5496659 C89.2214654,54.6681916 89.8925288,53.6421139 90.333266,52.548497 C90.7817961,51.4540141 91,50.2945896 91,49.1403605 C90.9991341,47.988729 90.7809303,46.8405611 90.3401931,45.7564689 L90.3401931,45.7564689 Z M80.8838266,57.8763079 L64.1271557,41.1144416 L66.691051,38.5496803 L83.4546491,55.3080831 L80.8838266,57.8763079 L80.8838266,57.8763079 Z M78.3268584,60.4384714 L57.4217165,81.3453451 L54.835308,78.7589367 L75.7447794,57.852063 L78.3268584,60.4384714 L78.3268584,60.4384714 Z M61.5701875,43.6800687 L64.6311027,46.7435816 L43.7250949,67.6487235 L40.6563866,64.5817471 L61.5701875,43.6800687 L61.5701875,43.6800687 Z M46.2993809,70.2160824 L67.1932663,49.3126723 L73.1704934,55.2898994 L52.2679491,76.1915778 L46.2993809,70.2160824 L46.2993809,70.2160824 Z M40.4399146,85.743192 L36.3001025,81.5999163 C36.5373559,80.4803227 36.7893294,79.3061781 37.0395711,78.1242405 C37.8206024,74.4814483 38.6172196,70.7537991 39.1609975,68.211551 L53.8300117,82.8805651 C50.8132568,83.5230543 46.6682493,84.4123216 42.8219734,85.2297202 C42.010636,85.4115567 41.2166164,85.5786732 40.4399146,85.743192 L40.4399146,85.743192 Z M66.4364799,33.6885833 L66.4364799,33.6885833 L66.4330163,33.6842538 L66.4364799,33.6885833 L66.4364799,33.6885833 Z M66.3905878,33.7552567 C66.3793312,33.7872945 66.3715383,33.8245277 66.3715383,33.8617609 C66.3750018,33.7959534 66.3827948,33.7717085 66.3905878,33.7552567 L66.3905878,33.7552567 Z" id="Pencil" fill="#5B4DC8"></path>
                        </g>
                    </g>
                </g>
            </g>
        </g>
    </g>
</svg>