<?xml version="1.0" encoding="UTF-8" standalone="no"?>
<svg width="122px" height="122px" viewBox="0 0 122 122" version="1.1" xmlns="http://www.w3.org/2000/svg" xmlns:xlink="http://www.w3.org/1999/xlink">
    <!-- Generator: Sketch 41.2 (35397) - http://www.bohemiancoding.com/sketch -->
    <title>reports-circle-icon</title>
    <desc>Created with Sketch.</desc>
    <defs></defs>
    <g id="Page-1" stroke="none" stroke-width="1" fill="none" fill-rule="evenodd">
        <g id="reports-circle-icon">
            <g id="Page-1">
                <g id="Artboard">
                    <g id="Group-3">
                        <circle id="Oval-3" fill="#D9FBFD" cx="61" cy="61" r="61"></circle>
                        <path d="M27.4333323,37.0030417 C26.1592776,37.0031714 25.0001273,38.1623217 25,39.436374 L25,83.2363556 C25.0001273,84.5104484 26.1592776,85.6696068 27.4333323,85.6696879 L95.566637,85.6696879 C96.8406917,85.6696068 97.999842,84.5104484 97.9999693,83.2363556 L97.9999693,39.436374 C98.0063771,38.2425487 97.0074463,37.1274904 95.8201091,37.0030417 C95.7356952,36.9989861 95.651051,36.9989861 95.566637,37.0030417 L27.4333323,37.0030417 L27.4333323,37.0030417 Z M29.8666646,41.8697063 L93.1333047,41.8697063 L93.1333047,80.8030233 L29.8666646,80.8030233 L29.8666646,49.1697032 L66.3666493,49.1697032 C67.6522096,49.1878721 68.8253288,48.0220626 68.8253288,46.7363709 C68.8253288,45.4506873 67.6522096,44.2848616 66.3666493,44.3030386 L29.8666646,44.3030386 L29.8666646,41.8697063 L29.8666646,41.8697063 Z M73.6666462,44.3030386 C72.3227541,44.3030386 71.2333139,45.392482 71.2333139,46.7363709 C71.2333139,48.0802598 72.3227541,49.1697032 73.6666462,49.1697032 C75.0105384,49.1697032 76.0999785,48.0802598 76.0999785,46.7363709 C76.0999785,45.392482 75.0105384,44.3030386 73.6666462,44.3030386 L73.6666462,44.3030386 Z M80.9666432,44.3030386 C79.622751,44.3030386 78.5333109,45.392482 78.5333109,46.7363709 C78.5333109,48.0802598 79.622751,49.1697032 80.9666432,49.1697032 C82.3105353,49.1697032 83.3999755,48.0802598 83.3999755,46.7363709 C83.3999755,45.392482 82.3105353,44.3030386 80.9666432,44.3030386 L80.9666432,44.3030386 Z M88.2666401,44.3030386 C86.922748,44.3030386 85.8333078,45.392482 85.8333078,46.7363709 C85.8333078,48.0802598 86.922748,49.1697032 88.2666401,49.1697032 C89.6105322,49.1697032 90.6999724,48.0802598 90.6999724,46.7363709 C90.6999724,45.392482 89.6105322,44.3030386 88.2666401,44.3030386 L88.2666401,44.3030386 Z M72.6020633,54.0363678 C71.7326089,54.0815005 70.9532965,54.5871052 70.5577452,55.362687 C70.1621938,56.1382687 70.2105115,57.0659698 70.6844939,57.7962633 C71.1584763,58.5265569 71.9860967,58.9484672 72.8555355,58.9030325 L73.1850492,58.9030325 L65.6062329,66.0509461 L59.1680412,59.6127544 C58.7027334,59.1454713 58.0677106,58.8870274 57.408337,58.8965835 C56.7489633,58.9061397 56.1216968,59.1828776 55.670126,59.6634488 L41.8812429,74.2634427 C41.2834163,74.8973151 41.0692103,75.8019948 41.3193281,76.6366397 C41.569446,77.4712845 42.245881,78.1090661 43.0937831,78.3096972 C43.9416853,78.5103284 44.8322117,78.2433222 45.4298525,77.6092746 L57.4951252,64.8089328 L63.8319281,71.1457357 C64.7631148,72.0806949 66.2697796,72.1031824 67.2284545,71.1964301 L76.9110893,62.0967811 L76.9110893,62.9585863 C76.8986786,63.8361333 77.3597357,64.6523836 78.1177127,65.0947789 C78.8756898,65.5371742 79.8131534,65.5371742 80.5711305,65.0947789 C81.3291076,64.6523836 81.7901646,63.8361333 81.7777539,62.9585863 L81.7777539,56.4697002 C81.7776196,55.1258635 80.6882583,54.0365022 79.3444216,54.0363678 L72.8555355,54.0363678 C72.7711021,54.0319647 72.6864967,54.0319647 72.6020633,54.0363678 L72.6020633,54.0363678 Z" id="Shape" fill="#5B4DC8"></path>
                    </g>
                </g>
            </g>
        </g>
    </g>
</svg>